<svg xmlns="http://www.w3.org/2000/svg" width="50" height="50" viewBox="0 0 50 50">
    <path d="M33,5H17V1c0-0.552-0.448-1-1-1h-3c-0.552,0-1,0.448-1,1v39c0,3.718,3.495,6,6,6h15c2.757,0,5-2.243,5-5V10 C38,7.243,35.757,5,33,5z M19,42c-1.104,0-2-0.896-2-2s0.896-2,2-2s2,0.896,2,2S20.104,42,19,42z M19,36c-1.104,0-2-0.896-2-2 s0.896-2,2-2s2,0.896,2,2S20.104,36,19,36z M19,30c-1.104,0-2-0.896-2-2s0.896-2,2-2s2,0.896,2,2S20.104,30,19,30z M25,42 c-1.104,0-2-0.896-2-2s0.896-2,2-2s2,0.896,2,2S26.104,42,25,42z M25,36c-1.104,0-2-0.896-2-2s0.896-2,2-2s2,0.896,2,2 S26.104,36,25,36z M25,30c-1.104,0-2-0.896-2-2s0.896-2,2-2s2,0.896,2,2S26.104,30,25,30z M31,42c-1.104,0-2-0.896-2-2s0.896-2,2-2 s2,0.896,2,2S32.104,42,31,42z M31,36c-1.104,0-2-0.896-2-2s0.896-2,2-2s2,0.896,2,2S32.104,36,31,36z M31,30c-1.104,0-2-0.896-2-2 s0.896-2,2-2s2,0.896,2,2S32.104,30,31,30z M33,21c0,1.1-0.9,2-2,2H19c-1.1,0-2-0.9-2-2v-8c0-1.1,0.9-2,2-2h12c1.1,0,2,0.9,2,2V21z"/>
</svg>